<svg xmlns="http://www.w3.org/2000/svg" width="24" height="24"><path d="M20.485 3.52A11.9 11.9 0 0012.162.01.887.887 0 0012 0a.9.9 0 00-.163.01 11.991 11.991 0 000 23.98A.9.9 0 0012 24a.887.887 0 00.162-.01 11.99 11.99 0 008.323-20.47zM4.523 4.53a10.47 10.47 0 014.5-2.68 11.51 11.51 0 00-1.091 1.5 14.192 14.192 0 00-1.135 2.29H3.55a10.484 10.484 0 01.973-1.11zm-1.88 2.54h3.675a17.917 17.917 0 00-.664 4.22h-4.2a10.451 10.451 0 011.189-4.22zm0 9.86a10.5 10.5 0 01-1.192-4.22h4.2a17.917 17.917 0 00.664 4.22H2.64zm1.88 2.54a10.484 10.484 0 01-.971-1.11H6.8a14.192 14.192 0 001.135 2.29 10.747 10.747 0 001.091 1.49 10.449 10.449 0 01-4.503-2.67zm6.764 2.81a7.7 7.7 0 01-2.139-2.38 12.912 12.912 0 01-.807-1.54h2.946v3.92zm0-5.35h-3.48a16.267 16.267 0 01-.725-4.22h4.205v4.22zm0-5.64H7.082a16.267 16.267 0 01.725-4.22h3.48v4.22zm0-5.65H8.341a12.188 12.188 0 01.807-1.54 7.7 7.7 0 012.139-2.38v3.92zm10.07 1.43a10.466 10.466 0 011.192 4.22h-4.2a17.814 17.814 0 00-.664-4.22h3.676zm-1.881-2.54a10.381 10.381 0 01.972 1.11H17.2a14.275 14.275 0 00-1.135-2.29 11.422 11.422 0 00-1.092-1.5 10.464 10.464 0 014.503 2.68zm-6.763-2.81a7.726 7.726 0 012.139 2.38 12.188 12.188 0 01.807 1.54h-2.946V1.72zm0 5.35h3.48a16.309 16.309 0 01.725 4.22h-4.205V7.07zm4.205 5.64a16.309 16.309 0 01-.725 4.22h-3.48v-4.22h4.205zm-4.205 9.57v-3.92h2.945a12.906 12.906 0 01-.806 1.54 7.726 7.726 0 01-2.139 2.38zm6.763-2.81a10.443 10.443 0 01-4.5 2.67 10.67 10.67 0 001.092-1.49 14.275 14.275 0 001.135-2.29h3.247a10.381 10.381 0 01-.974 1.11zm1.881-2.54h-3.676a17.814 17.814 0 00.664-4.22h4.2a10.512 10.512 0 01-1.188 4.22z" fill="#fff" fill-rule="evenodd"/></svg>